<?xml version="1.0" encoding="utf-8"?>
<!-- Generator: Adobe Illustrator 25.2.0, SVG Export Plug-In . SVG Version: 6.00 Build 0)  -->
<svg version="1.1" id="Layer_1" xmlns="http://www.w3.org/2000/svg" xmlns:xlink="http://www.w3.org/1999/xlink" x="0px" y="0px"
	 viewBox="0 0 444.5 538.99" style="enable-background:new 0 0 444.5 538.99;" xml:space="preserve">
<style type="text/css">
	.st0{display:none;}
	.st1{display:inline;fill:#E6E6E6;}
	.st2{display:inline;fill:#F2F2F2;}
	.st3{fill:#A4BAB7;}
	.st4{font-family:'ArialMT';}
	.st5{font-size:12px;}
	.st6{display:inline;fill:#9FB8AD;}
	.st7{fill:#333333;}
	.st8{font-family:'LeagueGothic-Regular';}
	.st9{font-size:148px;}
	.st10{letter-spacing:13;}
	.st11{letter-spacing:16;}
	.st12{fill:#FFFFFF;}
	.st13{display:inline;}
	.st14{stroke:#000000;stroke-width:2;stroke-miterlimit:10;}
	.st15{font-size:186.2451px;}
	.st16{letter-spacing:14;}
	.st17{display:inline;fill:#F7931E;}
	.st18{font-size:270.7095px;}
	.st19{letter-spacing:26;}
	.st20{display:inline;fill:#0071BC;}
	.st21{font-family:'GoodlifeSerif-Bold';}
	.st22{font-size:108.2633px;}
	.st23{letter-spacing:15;}
	.st24{display:inline;fill:none;stroke:#00FFFF;stroke-miterlimit:10;}
</style>
<g id="Layer_2_1_" class="st0">
	<rect x="75" y="49.99" class="st1" width="29.4" height="344.02"/>
	<rect x="133.8" y="49.99" class="st1" width="29.4" height="344.02"/>
	<rect x="192.6" y="49.99" class="st1" width="29.4" height="344.02"/>
	<rect x="251.4" y="49.99" class="st1" width="29.4" height="344.02"/>
	<rect x="310.2" y="49.99" class="st1" width="29.4" height="344.02"/>
</g>
<g id="Layer_12">
</g>
<g id="Layer_7" class="st0">
	<rect x="104.3" y="49.99" class="st2" width="29.4" height="344.02"/>
	<rect x="163.1" y="49.99" class="st2" width="29.4" height="344.02"/>
	<rect x="221.9" y="49.99" class="st2" width="29.4" height="344.02"/>
	<rect x="280.7" y="49.99" class="st2" width="29.4" height="344.02"/>
	<rect x="339.5" y="49.99" class="st2" width="29.4" height="344.02"/>
</g>
<g id="Layer_8">
	<rect x="0" y="0" class="st3" width="444.5" height="538.99"/>
	<rect x="50" y="50" class="st3" width="344.5" height="438.99"/>
	<text class="st4 st5"> </text>
</g>
<g id="Layer_10" class="st0">
	<rect x="75" y="75" class="st6" width="295" height="295"/>
</g>
<g id="Layer_13">
</g>
<g id="Layer_11">
</g>
<g id="Layer_3">
</g>
<g id="Layer_4">
</g>
<g id="Layer_1_1_">
</g>
<g id="Layer_14">
	<text transform="matrix(1 0 0 1 94.2422 208.8638)" class="st7 st8 st9 st10">DATA</text>
	<text transform="matrix(1 0 0 1 94.6123 343.9255)" class="st7 st8 st9 st11">CHEF</text>
</g>
<g id="Layer_9">
	<polygon class="st12" points="49.5,419.99 394.5,419.99 394.5,488.99 369.5,488.99 369.5,444.99 74.5,444.99 74.5,488.99 
		49.5,488.99 	"/>
	<polygon class="st12" points="75,75 75,370 119,370 119,395 50,395 50,50 119,50 119,75 	"/>
	<polygon class="st12" points="393.99,49.99 393.99,394.99 324.99,394.99 324.99,369.99 368.99,369.99 368.99,74.99 324.99,74.99 
		324.99,49.99 	"/>
</g>
<g id="Layer_6" class="st0">
	<g class="st13">
		<path class="st14" d="M336.28,184.38C309.97,215.62,247.84,193,215.72,162c48.6,28.66,125.55,47.3,132.65-25.93
			c0.76,15.26-1.16,27.3-5.07,36.61c55.42-20.52,1.57-71.23-26.04-82.82c-16.87-34.32-47.71-44.58-92.56-30.81
			c-48.63-13.8-98.47-16.37-135.64,25.54c-16.07,18.13-11.32,41.37,3.37,52.6c34.02,26.04,76.94,20.18,127.03,0
			c-25.5,17.59-53.02,34.67-90.02,29.83c5.71,14.07,7.61,27.6,9.01,41.05c30.76-9.83,62.69-6.05,94.33-0.76
			c-33.35-0.83-67.07-1.43-100.03,10.08c-3.82,1.33-5.14,5.88-4.15,10.08c1.88,8.01,3.38,15.76,4.63,23.37
			c0-0.13,2.53-1.12,2.79-1.23c1.1-0.47,2.2-0.95,3.3-1.39c2.1-0.87,4.22-1.71,6.33-2.52c4.18-1.58,8.4-3.04,12.66-4.36
			c8.28-2.55,16.73-4.58,25.28-6.01c16.63-2.78,33.62-3.22,50.37-1.24c7.51,0.89,14.98,2.26,22.34,4.06
			c0.92,0.24,1.84,0.56,2.78,0.7c0.41,0.06,0.83,0.13,1.24,0.21c0.8,0.15,1.59,0.35,2.39,0.54c1.2,0.28,2.41,0.58,3.63,0.86
			c1.89,0.45,3.78,0.91,5.66,1.45c1.2,0.34,2.4,0.73,3.58,1.15c0.59,0.21,1.24,0.4,1.8,0.71c0.18,0.09,0.31,0.15,0.5,0.2
			c0.53,0.11,1.06,0.22,1.57,0.39c1.04,0.32,2.04,0.74,3.05,1.16c0.64,0.33,1.33,0.57,2,0.84c1.7,0.72,3.5,1.28,5.24,1.9
			c1.69,0.6,3.38,1.22,5.06,1.87c3.35,1.28,6.69,2.63,9.98,4.05c0.15,0.07,0.3,0.13,0.45,0.2c3.27,1.43,6.52,2.86,9.71,4.49
			c0.04,0.01,0.06,0.04,0.09,0.05c0.82-8.86,1.62-17.71,2.22-26.58c0.37-5.32-3.92-10.48-10.04-12.51c-12.63-4.19-26.06-5.33-39.1-8
			c16.43,0.39,33.74-0.76,46.84,2.35c2.39-6.82,4.77-11.19,7.15-15.2c-0.44,5.81-0.74,11.64-0.26,17.45
			c0.93,0.4,1.83,0.84,2.69,1.31c5.19,2.89,3.66,8.75,2.42,12.86c-2.91,9.6-4.25,19.47-5.67,29.27c-0.19,0.6-0.37,1.2-0.53,1.8
			c-0.07,0.24-0.14,0.46-0.2,0.69c0.07,0.46-0.07,0.96-0.35,1.36c-0.13,0.51-0.27,1.02-0.38,1.52l-0.04,0.04
			c-0.37-0.25-0.72-0.51-1.09-0.76c-0.26,0-0.53-0.06-0.82-0.19c-0.65-0.32-1.3-0.65-1.95-0.98c-5.09-1.94-10.02-4.28-14.99-6.5
			c-0.04-0.02-0.07-0.04-0.11-0.05c-3.67-1.16-7.15-2.61-10.64-4.16c-5.4-1.84-10.92-3.35-16.51-4.65c-1.75-0.33-3.48-0.73-5.2-1.18
			c-3.64-0.8-7.28-1.59-10.89-2.45c-0.22-0.04-0.44-0.06-0.66-0.09c-0.59-0.09-1.19-0.18-1.8-0.26c-0.54-0.08-1.16-0.09-1.69-0.25
			c-1.04-0.3-2.22-0.31-3.3-0.41c-3.67-0.37-7.35-0.71-11.02-1.02c-4.5-0.38-9.03-0.82-13.53-0.95c-3.61-0.09-7.23-0.15-10.84-0.18
			c2.22-0.06,4.45-0.07,6.69-0.06c0.61-0.04,1.22-0.05,1.83-0.05c0,0,0,0,0,0.01c0.32-0.01,0.65-0.02,0.98-0.01
			c0.92,0.02,1.83,0.08,2.75,0.14c0.19,0,0.38,0.01,0.56,0.02c0.71,0.04,1.41,0.08,2.1,0.14c0.37-0.02,0.76-0.01,1.17,0.04
			c1.55,0.19,3.11,0.34,4.65,0.52c0.56-0.02,1.15-0.05,1.72-0.07c-10.68-0.98-21.44-1.43-32.17-1.06c-0.05,0.05-0.11,0.09-0.17,0.14
			c0.46,0,0.92,0,1.39,0.01c0.25,0.01,0.5,0.02,0.74,0.04c1.13,0.06,2.27,0.12,3.4,0.2c-2.33,0-4.64,0.02-6.96,0.07
			c-1.74,0.04-3.46,0.08-5.19,0.18c-1.81,0.11-3.6,0.28-5.38,0.57c-0.74,0.12-1.5,0.38-2.26,0.28c-0.98-0.11-2.03,0.21-2.99,0.37
			c-2.14,0.35-4.25,0.79-6.37,1.28c-3.48,0.79-6.93,1.71-10.38,2.65c-1.09,0.28-2.17,0.58-3.25,0.87c-2.65,0.71-5.23,1.48-7.87,2.24
			c-8.61,2.5-17.07,5.54-25.32,9.06c0,0.04,0.01,0.08,0.01,0.13c-0.31,0.08-0.61,0.18-0.92,0.27c-0.28,0.07-0.57,0.15-0.85,0.22
			l-0.67,0.18c-0.92,0.25-1.84,0.52-2.75,0.89c-0.02,0-0.05,0.02-0.07,0.02c-1.45-12.51-5.55-25-10.29-37.54
			c-1.16-3.1,1.24-7.36,5.54-9.38c1.29-0.61,2.59-1.18,3.87-1.74c0.96-14.81-1.38-30.22-7.57-46.33
			c-10.51-2.28-21.77-6.31-33.94-12.53c-35.64-18.25-31.09-52-7.87-74.77c43.01-42.15,92.54-43.77,142.02-28.93
			c38.9-18.11,85.76-1,105.67,36.44C377.96,109.5,404.96,166.91,336.28,184.38z"/>
		<path class="st14" d="M237.2,241.89c-0.58,0.02-1.17,0.05-1.72,0.07c-1.55-0.18-3.11-0.33-4.65-0.52
			c-0.41-0.05-0.8-0.06-1.17-0.04c-0.7-0.06-1.39-0.11-2.1-0.14c-0.18-0.01-0.37-0.02-0.56-0.02c-0.92-0.06-1.83-0.12-2.75-0.14
			c-0.33-0.01-0.66,0-0.98,0.01c0-0.01,0-0.01,0-0.01c-0.61,0-1.22,0.01-1.83,0.05c-2.23-0.01-4.47,0-6.69,0.06
			c-1.07,0.02-2.15,0.05-3.21,0.09c-0.38-0.04-0.76-0.06-1.12-0.08c-1.13-0.08-2.27-0.14-3.4-0.2c-0.25-0.01-0.5-0.02-0.74-0.04
			c-0.47-0.01-0.93-0.01-1.39-0.01c0.06-0.05,0.12-0.09,0.17-0.14C215.76,240.46,226.52,240.91,237.2,241.89z"/>
		<path class="st14" d="M237.2,241.89c-0.58,0.02-1.17,0.05-1.72,0.07c-1.55-0.18-3.11-0.33-4.65-0.52
			c-0.41-0.05-0.8-0.06-1.17-0.04c-0.7-0.06-1.39-0.11-2.1-0.14c-0.18-0.01-0.37-0.02-0.56-0.02c-0.92-0.06-1.83-0.12-2.75-0.14
			c-0.33-0.01-0.66,0-0.98,0.01c0-0.01,0-0.01,0-0.01c-0.61,0-1.22,0.01-1.83,0.05c-2.23-0.01-4.47,0-6.69,0.06h-0.22
			c-1.37,0-2.74,0-4.11,0.01c-1.13-0.08-2.27-0.14-3.4-0.2c-0.25-0.01-0.5-0.02-0.74-0.04c-0.47-0.01-0.93-0.01-1.39-0.01
			c0.06-0.05,0.12-0.09,0.17-0.14C215.76,240.46,226.52,240.91,237.2,241.89z"/>
	</g>
	<text transform="matrix(1 0 0 1 74.0967 421.3135)" class="st13 st8 st15 st16">DATA</text>
	<text transform="matrix(1 0 0 1 22.5332 438.2412)" class="st17 st8 st18 st19">[</text>
	<text transform="matrix(1 0 0 1 359.8662 438.0723)" class="st17 st8 st18 st19">]</text>
	<text transform="matrix(1 0 0 1 93.8896 504.0996)" class="st20 st21 st22 st23">CHEF</text>
</g>
<g id="guides" class="st0">
	<rect x="75" y="75.5" class="st24" width="294" height="294"/>
	<rect x="-82.5" y="-24.5" class="st24" width="609" height="609"/>
</g>
</svg>
