<?xml version="1.0" encoding="utf-8"?>
<!-- Generator: Adobe Illustrator 25.2.0, SVG Export Plug-In . SVG Version: 6.00 Build 0)  -->
<svg version="1.1" xmlns="http://www.w3.org/2000/svg" xmlns:xlink="http://www.w3.org/1999/xlink" x="0px" y="0px"
	 viewBox="0 0 702.54 833.84" style="enable-background:new 0 0 702.54 833.84;" xml:space="preserve">
<style type="text/css">
	.st0{display:none;}
	.st1{display:inline;fill:#0000FF;}
	.st2{display:inline;fill:#00FF00;}
	.st3{fill:#E19E07;}
	.st4{fill:#FFB70C;}
	.st5{fill:#1A7C0F;}
	.st6{fill:#23941E;}
	.st7{fill:#FF7F24;}
	.st8{fill:#E3660E;}
	.st9{fill:#F7931E;}
	.st10{fill:#D4F7FA;}
	.st11{fill:#91BEC2;}
	.st12{fill:#B4EBF0;}
	.st13{fill:#39B54A;}
	.st14{fill:#F74545;}
	.st15{opacity:0.2;fill:#FFFFFF;}
	.st16{fill:#D5AA78;}
	.st17{fill:#C69B70;}
	.st18{fill:#EBBF92;}
	.st19{fill:#BF8F67;}
	.st20{fill:#FFFF00;}
	.st21{fill:#ED1C24;}
	.st22{fill:#ECF0F1;}
	.st23{fill:#0071BC;}
	.st24{fill:#1B1464;}
	.st25{fill:#FFFFFF;}
</style>
<g id="Layer_1" class="st0">
</g>
<g id="Layer_5">
</g>
<g id="Layer_7">
</g>
<g id="Layer_6">
</g>
<g id="Layer_3">
</g>
<g id="Layer_2">
	<g>
		<g>
			<g>
				<g id="pointer_1_">
					<path class="st21" d="M560.53,152.36c-115.56-115.56-302.95-115.58-418.51,0c-115.58,115.57-115.58,302.93,0,418.51
						l188.83,188.84c11.28,11.27,29.56,11.27,40.84,0l188.84-188.84C676.09,455.29,676.09,267.93,560.53,152.36z"/>
					<path class="st22" d="M508.45,517.94c-86.8,86.82-227.55,86.8-314.36,0c-86.8-86.81-86.8-227.54,0-314.35
						c86.81-86.82,227.56-86.82,314.35,0C595.25,290.4,595.25,431.13,508.45,517.94z"/>
				</g>
			</g>
		</g>
		<path class="st23" d="M346.87,208.25c7.89,0,14.81,2.15,20.79,6.45c5.97,4.3,10.94,10.27,14.87,17.92
			c3.94,7.65,6.58,16.67,7.89,27.06c1.31,10.4,1.26,21.69-0.18,33.87c3.58-8.12,7.28-16,11.11-23.65
			c3.82-7.64,8.25-14.45,13.27-20.43c5.01-5.97,10.69-10.76,17.02-14.34c6.33-3.58,13.8-5.37,22.4-5.37
			c7.17,0,13.32,1.37,18.46,4.12c5.13,2.75,9.44,6.33,12.9,10.76c3.46,4.42,6.03,9.31,7.71,14.69c1.66,5.38,2.5,10.69,2.5,15.95
			c0,6.93-0.89,14.58-2.68,22.94c-1.79,8.37-4.01,17.03-6.63,25.98c-2.63,8.96-5.55,18.05-8.78,27.24
			c-3.23,9.21-6.16,18.1-8.78,26.71c-2.63,8.6-4.84,16.79-6.64,24.55c-1.79,7.77-2.68,14.64-2.68,20.61
			c0,8.37,1.61,14.46,4.84,18.28c3.23,3.83,8.42,5.74,15.59,5.74c5.74,0,11.23-1.67,16.48-5.02c2.84-1.8,5.53-3.72,8.08-5.73
			l-3.77-3.33c-3.93-3.46-2.62-9.88,2.33-11.55l22.86-7.68c0.73-0.25,1.47-0.36,2.18-0.36c4.1,0,7.54,3.79,6.65,8.16l-4.77,23.63
			c-0.69,3.4-3.64,5.46-6.7,5.46c-1.56,0-3.15-0.54-4.48-1.71l-5.61-4.96c-0.85,0.97-1.71,1.93-2.61,2.91
			c-5.85,6.33-12.85,12.01-20.96,17.02c-8.13,5.02-16.85,7.53-26.16,7.53c-7.17,0-13.56-1.43-19.18-4.3
			c-5.61-2.87-10.34-6.68-14.16-11.46c-3.82-4.78-6.75-10.45-8.78-17.03c-2.04-6.57-3.04-13.68-3.04-21.33
			c0-9.79,1.25-20.96,3.76-33.51c2.51-12.54,5.32-24.73,8.42-36.55c3.1-11.83,5.91-22.53,8.42-32.08
			c2.51-9.55,3.77-16.25,3.77-20.07c0-5.49-2.75-8.25-8.25-8.25c-4.54,0-9.5,4.42-14.87,13.27c-5.38,8.84-10.76,20.31-16.12,34.41
			c-5.38,14.1-10.46,29.8-15.23,47.12c-4.78,17.33-8.96,34.47-12.55,51.44c-2.39,11.23-6.45,19.47-12.18,24.73
			c-5.74,5.26-12.91,7.88-21.51,7.88c-9.08,0-15.71-3.34-19.89-10.03c-4.19-6.69-6.28-14.58-6.28-23.65c0-8.6,0.95-18.7,2.87-30.29
			c1.92-11.59,4-23.83,6.28-36.74c2.26-12.9,4.35-25.81,6.27-38.7c1.91-12.91,2.87-24.97,2.87-36.2c0-8.6-3.83-12.9-11.47-12.9
			c-3.59,0-7.52,2.45-11.82,7.35c-4.3,4.9-8.78,11.47-13.44,19.71c-4.66,8.25-9.21,17.8-13.62,28.67
			c-4.42,10.88-8.54,22.34-12.36,34.41c-3.82,12.07-7.17,24.43-10.03,37.09c-2.87,12.66-4.91,24.73-6.1,36.19
			c-0.48,4.55-1.92,8.91-4.3,13.08c-2.39,4.19-5.32,7.95-8.78,11.29c-3.47,3.35-7.29,6.03-11.47,8.07
			c-4.18,2.02-8.18,3.04-12.01,3.04c-12.18,0-21.21-3.35-27.06-10.04c-5.86-6.68-8.78-15.17-8.78-25.45
			c0-7.88,0.94-18.87,2.87-32.97c1.91-14.1,3.94-29.75,6.09-46.95c2.15-17.21,4.07-35.13,5.74-53.76
			c1.67-18.64,2.26-36.56,1.79-53.76c0-3.59,0.83-7.28,2.51-11.11c1.67-3.82,4.12-7.35,7.35-10.57c3.23-3.23,7.05-5.85,11.47-7.89
			c4.42-2.03,9.37-3.04,14.87-3.04c5.96,0,10.93,1.43,14.87,4.3c3.94,2.87,7,7.59,9.15,14.16c2.15,6.58,3.28,15.17,3.4,25.81
			c0.11,10.63-0.53,23.72-1.97,39.25c9.31-32.73,20.66-56.93,34.04-72.58C308.28,216.08,325.6,208.25,346.87,208.25 M346.87,189.01
			c-13.33,0-25.74,2.55-36.87,7.58c-11.21,5.07-21.21,12.68-29.72,22.63c-1.85,2.17-3.66,4.45-5.43,6.86
			c-3.32-7-7.76-12.54-13.26-16.54c-7.26-5.29-16.07-7.98-26.18-7.98c-8.27,0-15.97,1.61-22.91,4.8
			c-6.5,2.99-12.23,6.95-17.05,11.77c-4.92,4.92-8.74,10.46-11.37,16.47c-2.73,6.23-4.12,12.57-4.12,18.82v0.26l0.01,0.26
			c0.45,16.4-0.13,33.73-1.72,51.52c-1.63,18.23-3.54,36.1-5.66,53.09c-2.14,17.09-4.18,32.83-6.06,46.76
			c-2.05,14.99-3.04,26.63-3.04,35.55c0,15.05,4.56,27.88,13.55,38.13c9.62,11,23.6,16.59,41.52,16.59c6.71,0,13.57-1.67,20.38-4.96
			l0.03-0.01l0.03-0.01c5.98-2.92,11.5-6.79,16.4-11.52c4.78-4.61,8.86-9.86,12.14-15.61c3.69-6.45,5.96-13.39,6.72-20.58
			c1.1-10.65,3.03-22.06,5.73-33.97c2.72-12.02,5.95-23.98,9.61-35.54c3.65-11.53,7.64-22.62,11.84-32.97
			c3.82-9.39,7.76-17.79,11.74-25.01c-0.32,2.73-0.69,5.5-1.1,8.32c-1.88,12.69-3.97,25.55-6.19,38.19
			c-2.23,12.67-4.36,25.1-6.31,36.93c-2.07,12.56-3.13,23.81-3.13,33.43c0,12.71,3.1,24.1,9.21,33.86
			c7.66,12.28,20.52,19.06,36.19,19.06c13.34,0,25.27-4.47,34.51-12.93c8.73-8.01,14.78-19.75,18-34.91
			c1.43-6.77,2.97-13.6,4.6-20.47c0,0.23,0,0.46,0,0.69c0,9.58,1.31,18.67,3.91,27.03c2.72,8.81,6.8,16.67,12.12,23.33
			c5.51,6.89,12.38,12.47,20.44,16.59c8.32,4.25,17.72,6.41,27.93,6.41c12.89,0,25.09-3.5,36.27-10.4
			c5.73-3.54,11.03-7.4,15.87-11.56c2.47,0.77,5.06,1.17,7.69,1.17c12.36,0,23.1-8.78,25.56-20.88l4.78-23.64
			c1.56-7.68-0.39-15.56-5.35-21.63c-4.98-6.09-12.33-9.58-20.16-9.58c-2.82,0-5.61,0.46-8.3,1.36l-22.87,7.68
			c-8.8,2.97-15.4,10.45-17.23,19.54c-0.34,1.69-0.51,3.38-0.51,5.07c-0.04,0-0.08,0-0.12-0.01c-0.17-1.04-0.33-2.58-0.33-4.76
			c0-4.5,0.74-9.98,2.19-16.29c1.68-7.29,3.8-15.11,6.29-23.24c2.5-8.2,5.37-16.93,8.54-25.97c3.27-9.32,6.33-18.8,9.08-28.18
			c2.76-9.42,5.11-18.63,6.98-27.37c2.06-9.63,3.11-18.7,3.11-26.97c0-7.14-1.13-14.42-3.36-21.63l-0.01-0.03l-0.01-0.03
			c-2.37-7.59-6.05-14.59-10.94-20.83c-5.09-6.51-11.48-11.84-18.96-15.85c-7.95-4.24-17.21-6.39-27.53-6.39
			c-11.92,0-22.64,2.64-31.87,7.86c-6.76,3.83-12.96,8.69-18.52,14.51c-1.19-3.17-2.53-6.2-4.02-9.09
			c-5.31-10.31-12.29-18.63-20.73-24.71C369.61,192.4,358.84,189.01,346.87,189.01L346.87,189.01z"/>
		<g>
			<path class="st24" d="M534.66,421.8l-4.77,23.63c-1.04,5.13-7.25,7.22-11.18,3.75l-5.61-4.96c-0.85,0.97-1.71,1.93-2.61,2.91
				c-5.85,6.33-12.85,12.01-20.96,17.02c-8.13,5.02-16.85,7.53-26.16,7.53c-7.17,0-13.56-1.43-19.18-4.3
				c-5.61-2.87-10.34-6.68-14.16-11.46c-3.82-4.78-6.75-10.45-8.78-17.03c-2.04-6.57-3.04-13.68-3.04-21.33
				c0-9.79,1.25-20.96,3.76-33.51c2.51-12.54,5.32-24.73,8.42-36.55c3.1-11.83,5.91-22.53,8.42-32.08
				c2.51-9.55,3.77-16.25,3.77-20.07c0-5.49-2.75-8.25-8.25-8.25c-4.54,0-9.5,4.42-14.87,13.27c-5.38,8.84-10.76,20.31-16.13,34.41
				c-5.38,14.1-10.46,29.8-15.23,47.12c-4.78,17.33-8.96,34.47-12.55,51.44c-2.39,11.23-6.45,19.47-12.18,24.73
				c-5.74,5.26-12.91,7.88-21.51,7.88c-9.08,0-15.71-3.34-19.89-10.03c-4.19-6.69-6.28-14.58-6.28-23.65c0-8.6,0.95-18.7,2.87-30.29
				c1.92-11.59,4.01-23.83,6.28-36.74c2.26-12.9,4.35-25.81,6.27-38.7c1.91-12.91,2.87-24.97,2.87-36.2c0-8.6-3.83-12.9-11.47-12.9
				c-3.59,0-7.52,2.45-11.82,7.35c-4.3,4.9-8.78,11.47-13.44,19.71c-4.66,8.25-9.21,17.8-13.62,28.67
				c-4.42,10.88-8.54,22.34-12.36,34.41c-3.82,12.07-7.17,24.43-10.03,37.09c-2.87,12.66-4.91,24.73-6.1,36.19
				c-0.48,4.55-1.92,8.91-4.3,13.08c-2.39,4.19-5.32,7.95-8.78,11.29c-3.47,3.35-7.29,6.03-11.47,8.07
				c-4.18,2.02-8.18,3.04-12.01,3.04c-12.18,0-21.21-3.35-27.06-10.04c-5.86-6.68-8.78-15.17-8.78-25.45
				c0-7.88,0.94-18.87,2.87-32.97c1.91-14.1,3.94-29.75,6.09-46.95c2.15-17.21,4.07-35.13,5.74-53.76
				c1.67-18.64,2.26-36.56,1.79-53.76c0-3.59,0.83-7.28,2.51-11.11c1.67-3.82,4.12-7.35,7.35-10.57c3.23-3.23,7.05-5.85,11.47-7.89
				c4.42-2.03,9.37-3.04,14.87-3.04c5.96,0,10.93,1.43,14.87,4.3c3.94,2.87,7,7.59,9.15,14.16c2.15,6.58,3.28,15.17,3.4,25.81
				c0.11,10.63-0.53,23.72-1.97,39.25c9.31-32.73,20.66-56.93,34.04-72.58c13.38-15.64,30.7-23.48,51.97-23.48
				c7.89,0,14.81,2.15,20.79,6.45c5.97,4.3,10.94,10.27,14.87,17.92c3.94,7.65,6.58,16.67,7.89,27.06
				c1.31,10.4,1.26,21.69-0.17,33.87c3.58-8.11,7.28-16,11.11-23.65c3.82-7.64,8.25-14.45,13.27-20.43
				c5.01-5.97,10.69-10.76,17.02-14.34c6.33-3.58,13.8-5.37,22.4-5.37c7.17,0,13.32,1.37,18.46,4.12c5.13,2.75,9.44,6.33,12.9,10.76
				c3.46,4.42,6.03,9.31,7.71,14.69c1.66,5.38,2.5,10.69,2.5,15.95c0,6.93-0.89,14.58-2.68,22.94c-1.79,8.37-4.01,17.03-6.63,25.98
				c-2.63,8.96-5.55,18.05-8.78,27.24c-3.23,9.21-6.16,18.1-8.78,26.71c-2.63,8.6-4.84,16.79-6.64,24.55
				c-1.79,7.77-2.68,14.64-2.68,20.61c0,8.37,1.61,14.46,4.84,18.28c3.23,3.83,8.42,5.74,15.59,5.74c5.74,0,11.23-1.67,16.48-5.02
				c2.84-1.8,5.53-3.72,8.08-5.73l-3.77-3.33c-3.93-3.46-2.62-9.88,2.33-11.55l22.86-7.68C530.79,412.34,535.7,416.67,534.66,421.8z
				"/>
		</g>
	</g>
</g>
<g id="Layer_4">
</g>
</svg>
