<?xml version="1.0" encoding="utf-8"?>
<!-- Generator: Adobe Illustrator 25.2.0, SVG Export Plug-In . SVG Version: 6.00 Build 0)  -->
<svg version="1.1" xmlns="http://www.w3.org/2000/svg" xmlns:xlink="http://www.w3.org/1999/xlink" x="0px" y="0px"
	 viewBox="0 0 1562.49 1913.77" style="enable-background:new 0 0 1562.49 1913.77;" xml:space="preserve">
<style type="text/css">
	.st0{display:none;}
	.st1{display:inline;fill:#0000FF;}
	.st2{display:inline;fill:#00FF00;}
	.st3{fill:#E19E07;}
	.st4{fill:#FFB70C;}
	.st5{fill:#1A7C0F;}
	.st6{fill:#23941E;}
	.st7{fill:#FF7F24;}
	.st8{fill:#E3660E;}
	.st9{fill:#F7931E;}
	.st10{fill:#D4F7FA;}
	.st11{fill:#91BEC2;}
	.st12{fill:#B4EBF0;}
	.st13{fill:#39B54A;}
	.st14{fill:#F74545;}
	.st15{opacity:0.2;fill:#FFFFFF;}
	.st16{fill:#D5AA78;}
	.st17{fill:#C69B70;}
	.st18{fill:#EBBF92;}
	.st19{fill:#BF8F67;}
	.st20{fill:#FFFF00;}
	.st21{fill:#ED1C24;}
	.st22{fill:#ECF0F1;}
	.st23{fill:#0071BC;}
	.st24{fill:#1B1464;}
	.st25{fill:#FFFFFF;}
</style>
<g id="Layer_1" class="st0">
</g>
<g id="Layer_5">
	<g>
		<polygon class="st18" points="1334.94,517.98 1334.94,1682.09 1449.81,1600.49 1449.81,422.98 		"/>
	</g>
	<g>
		<polygon class="st19" points="244.54,517.98 244.54,562.98 112.68,562.98 		"/>
		<polygon class="st17" points="376.42,423.04 376.42,562.98 244.54,562.98 244.54,517.98 		"/>
		<path class="st19" d="M1449.82,422.98l-204.03,0.01L1024.76,423c-0.13,22.76-11.71,43.36-30.37,58.26s-44.37,24.11-72.77,24.11
			c-28.4,0-54.12-9.21-72.77-24.11c-18.65-14.9-30.24-35.49-30.38-58.24l-221.03,0.01l-221.03,0.01v69.97v69.97h39.46h39.46v57.31
			v57.31h194.15h194.15v-57.31v-57.31h179.71h179.71l131.88-45L1449.82,422.98z"/>
	</g>
	<g>
		<g>
			<g>
				<path class="st3" d="M691.41,523.35c-49.03,67.48-112.52,118.22-183.13,151.1c1.75,10.77,1.61,9.89,3.36,20.66
					c97.62,12.05,198.66-27.84,260.57-113.05s68.63-193.63,27-282.75c-10.78,1.66-9.9,1.53-20.69,3.19
					C769.07,379.8,740.44,455.87,691.41,523.35z"/>
				<g>
					<g>
						<path class="st4" d="M799.21,299.3c-10.78,1.66-9.9,1.53-20.69,3.19c-9.45,77.31-38.09,153.38-87.11,220.86
							c-49.03,67.48-112.52,118.22-183.13,151.1c1.75,10.77,1.61,9.89,3.36,20.66c77.97-30.72,148.41-83.28,201.32-156.1
							C765.87,466.18,794.08,382.95,799.21,299.3z"/>
					</g>
				</g>
			</g>
			<g>
				<path class="st3" d="M741.94,538.11c-33.93,76.2-85.48,139.03-147.71,185.87c3.95,10.17,3.63,9.34,7.58,19.51
					c97.99-8.51,188.53-68.54,231.37-164.76s26.87-203.67-32.38-282.19c-10.2,3.87-9.37,3.55-19.57,7.42
					C788.06,381.55,775.86,461.91,741.94,538.11z"/>
				<g>
					<g>
						<path class="st4" d="M800.8,296.54c-10.2,3.87-9.37,3.55-19.57,7.42c6.83,77.59-5.37,157.94-39.29,234.14
							c-33.93,76.2-85.48,139.03-147.71,185.87c3.95,10.17,3.63,9.34,7.58,19.51c69.88-46.26,127.85-112.31,164.46-194.55
							C802.89,466.71,813.18,379.43,800.8,296.54z"/>
					</g>
				</g>
			</g>
			<g>
				<path class="st3" d="M794.43,542.04c-17.34,81.59-54.71,153.76-105.84,212.52c5.98,9.13,5.49,8.38,11.47,17.51
					c94.08-28.7,170.16-106.24,192.06-209.26S876.06,358,801.79,293.52c-9.17,5.91-8.43,5.42-17.6,11.33
					C807,379.32,811.77,460.45,794.43,542.04z"/>
				<g>
					<g>
						<path class="st4" d="M801.79,293.52c-9.17,5.9-8.43,5.42-17.6,11.33c22.81,74.47,27.59,155.61,10.25,237.2
							c-17.34,81.59-54.71,153.76-105.84,212.52c5.98,9.13,5.49,8.38,11.47,17.51c58.73-59.78,101.71-136.44,120.42-224.49
							C839.2,459.53,831.13,372.02,801.79,293.52z"/>
					</g>
				</g>
			</g>
			<g>
				<path class="st3" d="M846.6,534.97c0,83.41-21.54,161.78-59.34,229.88c7.75,7.68,7.11,7.06,14.86,14.74
					c86.06-47.63,144.35-139.29,144.35-244.62s-58.29-196.99-144.35-244.62c-7.75,7.68-7.11,7.06-14.86,14.74
					C825.06,373.19,846.6,451.56,846.6,534.97z"/>
				<g>
					<g>
						<path class="st4" d="M802.12,290.35c-7.75,7.68-7.11,7.06-14.86,14.74c37.8,68.1,59.34,146.47,59.34,229.88
							c0,83.41-21.54,161.78-59.34,229.88c7.75,7.68,7.11,7.06,14.86,14.74c45.02-70.69,71.12-154.6,71.12-244.62
							S847.14,361.04,802.12,290.35z"/>
					</g>
				</g>
			</g>
		</g>
		<g>
			<g>
				<g>
					<path class="st5" d="M1042.1,327.48c-6.87,78.52-23.68,72.09-44.95,70.23c-21.27-1.86-38.95,1.56-32.08-76.97
						c6.87-78.52,35.68-209.25,56.95-207.39C1043.29,115.22,1048.97,248.96,1042.1,327.48z"/>
					<path class="st6" d="M1023.76,320.74c6.87,78.52-10.8,75.11-32.08,76.97c-21.27,1.86-38.08,8.29-44.95-70.23
						c-6.87-78.52-1.2-212.27,20.08-214.13C988.07,111.5,1016.89,242.22,1023.76,320.74z"/>
				</g>
				<path class="st7" d="M1074.4,545.23c0,154.23-35.81,392.57-79.99,392.57c-44.18,0-79.99-238.34-79.99-392.57
					s35.81-165.95,79.99-165.95C1038.59,379.28,1074.4,391,1074.4,545.23z"/>
				<path class="st8" d="M994.07,379.28c44.36,0,80.33,11.72,80.33,165.95s-35.96,392.57-80.33,392.57V379.28z"/>
				<g>
					<path class="st9" d="M1035.05,412.29h-82.12c-2.7,0-4.89,2.19-4.89,4.89v0.04c0,2.7,2.19,4.89,4.89,4.89h82.12
						c2.7,0,4.89-2.19,4.89-4.89v-0.04C1039.94,414.48,1037.75,412.29,1035.05,412.29z"/>
					<path class="st9" d="M952.94,480.99h82.12c2.7,0,4.89-2.19,4.89-4.89v-0.04c0-2.7-2.19-4.89-4.89-4.89h-82.12
						c-2.7,0-4.89,2.19-4.89,4.89v0.04C948.05,478.8,950.24,480.99,952.94,480.99z"/>
					<path class="st9" d="M952.94,539.88h82.12c2.7,0,4.89-2.19,4.89-4.89v-0.04c0-2.7-2.19-4.89-4.89-4.89h-82.12
						c-2.7,0-4.89,2.19-4.89,4.89v0.04C948.05,537.69,950.24,539.88,952.94,539.88z"/>
					<path class="st9" d="M1050,441.74h-44.05c-2.7,0-4.89,2.19-4.89,4.89v0.04c0,2.7,2.19,4.89,4.89,4.89H1050
						c2.7,0,4.89-2.19,4.89-4.89v-0.04C1054.89,443.93,1052.7,441.74,1050,441.74z"/>
					<path class="st9" d="M982.04,441.74h-44.05c-2.7,0-4.89,2.19-4.89,4.89v0.04c0,2.7,2.19,4.89,4.89,4.89h44.05
						c2.7,0,4.89-2.19,4.89-4.89v-0.04C986.93,443.93,984.74,441.74,982.04,441.74z"/>
					<path class="st9" d="M1002.36,505.51v0.04c0,2.7,2.19,4.89,4.89,4.89h53.97c2.7,0,4.89-2.19,4.89-4.89v-0.04
						c0-2.7-2.19-4.89-4.89-4.89h-53.97C1004.55,500.62,1002.36,502.81,1002.36,505.51z"/>
					<path class="st9" d="M980.74,500.62h-53.97c-2.7,0-4.89,2.19-4.89,4.89v0.04c0,2.7,2.19,4.89,4.89,4.89h53.97
						c2.7,0,4.89-2.19,4.89-4.89v-0.04C985.63,502.81,983.44,500.62,980.74,500.62z"/>
					<path class="st9" d="M1007.25,569.32h53.97c2.7,0,4.89-2.19,4.89-4.89v-0.04c0-2.7-2.19-4.89-4.89-4.89h-53.97
						c-2.7,0-4.89,2.19-4.89,4.89v0.04C1002.36,567.13,1004.55,569.32,1007.25,569.32z"/>
					<path class="st9" d="M980.74,559.51h-53.97c-2.7,0-4.89,2.19-4.89,4.89v0.04c0,2.7,2.19,4.89,4.89,4.89h53.97
						c2.7,0,4.89-2.19,4.89-4.89v-0.04C985.63,561.7,983.44,559.51,980.74,559.51z"/>
					<path class="st9" d="M952.94,598.76h82.12c2.7,0,4.89-2.19,4.89-4.89v-0.04c0-2.7-2.19-4.89-4.89-4.89h-82.12
						c-2.7,0-4.89,2.19-4.89,4.89v0.04C948.05,596.57,950.24,598.76,952.94,598.76z"/>
					<path class="st9" d="M952.94,657.65h82.12c2.7,0,4.89-2.19,4.89-4.89v-0.04c0-2.7-2.19-4.89-4.89-4.89h-82.12
						c-2.7,0-4.89,2.19-4.89,4.89v0.04C948.05,655.46,950.24,657.65,952.94,657.65z"/>
					<path class="st9" d="M1006.8,628.21h50.56c2.7,0,4.89-2.19,4.89-4.89v-0.04c0-2.7-2.19-4.89-4.89-4.89h-50.56
						c-2.7,0-4.89,2.19-4.89,4.89v0.04C1001.91,626.02,1004.1,628.21,1006.8,628.21z"/>
					<path class="st9" d="M981.19,618.39h-50.56c-2.7,0-4.89,2.19-4.89,4.89v0.04c0,2.7,2.19,4.89,4.89,4.89h50.56
						c2.7,0,4.89-2.19,4.89-4.89v-0.04C986.08,620.58,983.89,618.39,981.19,618.39z"/>
					<path class="st9" d="M1005.95,687.09H1050c2.7,0,4.89-2.19,4.89-4.89v-0.04c0-2.7-2.19-4.89-4.89-4.89h-44.05
						c-2.7,0-4.89,2.19-4.89,4.89v0.04C1001.06,684.9,1003.25,687.09,1005.95,687.09z"/>
					<path class="st9" d="M982.04,677.28h-44.05c-2.7,0-4.89,2.19-4.89,4.89v0.04c0,2.7,2.19,4.89,4.89,4.89h44.05
						c2.7,0,4.89-2.19,4.89-4.89v-0.04C986.93,679.46,984.74,677.28,982.04,677.28z"/>
					<path class="st9" d="M952.94,716.53h82.12c2.7,0,4.89-2.19,4.89-4.89v-0.04c0-2.7-2.19-4.89-4.89-4.89h-82.12
						c-2.7,0-4.89,2.19-4.89,4.89v0.04C948.05,714.34,950.24,716.53,952.94,716.53z"/>
					<path class="st9" d="M952.94,775.42h82.12c2.7,0,4.89-2.19,4.89-4.89v-0.04c0-2.7-2.19-4.89-4.89-4.89h-82.12
						c-2.7,0-4.89,2.19-4.89,4.89v0.04C948.05,773.23,950.24,775.42,952.94,775.42z"/>
					<path class="st9" d="M1005.46,745.97h40.3c2.7,0,4.89-2.19,4.89-4.89v-0.04c0-2.7-2.19-4.89-4.89-4.89h-40.3
						c-2.7,0-4.89,2.19-4.89,4.89v0.04C1000.57,743.79,1002.76,745.97,1005.46,745.97z"/>
					<path class="st9" d="M982.53,736.16h-40.3c-2.7,0-4.89,2.19-4.89,4.89v0.04c0,2.7,2.19,4.89,4.89,4.89h40.3
						c2.7,0,4.89-2.19,4.89-4.89v-0.04C987.42,738.35,985.23,736.16,982.53,736.16z"/>
					<path class="st9" d="M1004.21,804.86h30.84c2.7,0,4.89-2.19,4.89-4.89v-0.04c0-2.7-2.19-4.89-4.89-4.89h-30.84
						c-2.7,0-4.89,2.19-4.89,4.89v0.04C999.33,802.67,1001.51,804.86,1004.21,804.86z"/>
					<path class="st9" d="M983.77,795.05h-30.84c-2.7,0-4.89,2.19-4.89,4.89v0.04c0,2.7,2.19,4.89,4.89,4.89h30.84
						c2.7,0,4.89-2.19,4.89-4.89v-0.04C988.66,797.23,986.48,795.05,983.77,795.05z"/>
					<path class="st9" d="M964.24,834.3h59.51c2.7,0,4.89-2.19,4.89-4.89v-0.04c0-2.7-2.19-4.89-4.89-4.89h-59.51
						c-2.7,0-4.89,2.19-4.89,4.89v0.04C959.35,832.11,961.54,834.3,964.24,834.3z"/>
					<path class="st9" d="M1002.9,863.74h20.85c2.7,0,4.89-2.19,4.89-4.89v-0.04c0-2.7-2.19-4.89-4.89-4.89h-20.85
						c-2.7,0-4.89,2.19-4.89,4.89v0.04C998.01,861.56,1000.2,863.74,1002.9,863.74z"/>
					<path class="st9" d="M964.24,863.74h20.85c2.7,0,4.89-2.19,4.89-4.89v-0.04c0-2.7-2.19-4.89-4.89-4.89h-20.85
						c-2.7,0-4.89,2.19-4.89,4.89v0.04C959.35,861.56,961.54,863.74,964.24,863.74z"/>
				</g>
			</g>
			<g>
				<g>
					<path class="st5" d="M962.11,376.9c-6.87,78.52-23.68,72.09-44.95,70.23c-21.27-1.86-38.95,1.56-32.08-76.97
						c6.87-78.52,35.68-209.25,56.95-207.39C963.3,164.63,968.98,298.38,962.11,376.9z"/>
					<path class="st6" d="M943.77,370.16c6.87,78.52-10.8,75.11-32.08,76.97c-21.27,1.86-38.08,8.29-44.95-70.23
						c-6.87-78.52-1.2-212.27,20.08-214.13C908.09,160.91,936.9,291.64,943.77,370.16z"/>
				</g>
				<path class="st7" d="M994.41,594.65c0,154.23-35.81,392.57-79.99,392.57c-44.18,0-79.99-238.34-79.99-392.57
					s35.81-165.95,79.99-165.95C958.6,428.7,994.41,440.42,994.41,594.65z"/>
				<path class="st8" d="M914.09,428.7c44.36,0,80.33,11.72,80.33,165.95s-35.96,392.57-80.33,392.57V428.7z"/>
				<g>
					<path class="st9" d="M955.06,461.71h-82.12c-2.7,0-4.89,2.19-4.89,4.89v0.04c0,2.7,2.19,4.89,4.89,4.89h82.12
						c2.7,0,4.89-2.19,4.89-4.89v-0.04C959.95,463.9,957.76,461.71,955.06,461.71z"/>
					<path class="st9" d="M872.95,530.41h82.12c2.7,0,4.89-2.19,4.89-4.89v-0.04c0-2.7-2.19-4.89-4.89-4.89h-82.12
						c-2.7,0-4.89,2.19-4.89,4.89v0.04C868.06,528.22,870.25,530.41,872.95,530.41z"/>
					<path class="st9" d="M872.95,589.29h82.12c2.7,0,4.89-2.19,4.89-4.89v-0.04c0-2.7-2.19-4.89-4.89-4.89h-82.12
						c-2.7,0-4.89,2.19-4.89,4.89v0.04C868.06,587.1,870.25,589.29,872.95,589.29z"/>
					<path class="st9" d="M970.01,491.15h-44.05c-2.7,0-4.89,2.19-4.89,4.89v0.04c0,2.7,2.19,4.89,4.89,4.89h44.05
						c2.7,0,4.89-2.19,4.89-4.89v-0.04C974.9,493.34,972.71,491.15,970.01,491.15z"/>
					<path class="st9" d="M902.05,491.15H858c-2.7,0-4.89,2.19-4.89,4.89v0.04c0,2.7,2.19,4.89,4.89,4.89h44.05
						c2.7,0,4.89-2.19,4.89-4.89v-0.04C906.94,493.34,904.75,491.15,902.05,491.15z"/>
					<path class="st9" d="M922.37,554.93v0.04c0,2.7,2.19,4.89,4.89,4.89h53.97c2.7,0,4.89-2.19,4.89-4.89v-0.04
						c0-2.7-2.19-4.89-4.89-4.89h-53.97C924.56,550.04,922.37,552.23,922.37,554.93z"/>
					<path class="st9" d="M900.75,550.04h-53.97c-2.7,0-4.89,2.19-4.89,4.89v0.04c0,2.7,2.19,4.89,4.89,4.89h53.97
						c2.7,0,4.89-2.19,4.89-4.89v-0.04C905.64,552.23,903.45,550.04,900.75,550.04z"/>
					<path class="st9" d="M927.26,618.74h53.97c2.7,0,4.89-2.19,4.89-4.89v-0.04c0-2.7-2.19-4.89-4.89-4.89h-53.97
						c-2.7,0-4.89,2.19-4.89,4.89v0.04C922.37,616.55,924.56,618.74,927.26,618.74z"/>
					<path class="st9" d="M900.75,608.92h-53.97c-2.7,0-4.89,2.19-4.89,4.89v0.04c0,2.7,2.19,4.89,4.89,4.89h53.97
						c2.7,0,4.89-2.19,4.89-4.89v-0.04C905.64,611.11,903.45,608.92,900.75,608.92z"/>
					<path class="st9" d="M872.95,648.18h82.12c2.7,0,4.89-2.19,4.89-4.89v-0.04c0-2.7-2.19-4.89-4.89-4.89h-82.12
						c-2.7,0-4.89,2.19-4.89,4.89v0.04C868.06,645.99,870.25,648.18,872.95,648.18z"/>
					<path class="st9" d="M872.95,707.06h82.12c2.7,0,4.89-2.19,4.89-4.89v-0.04c0-2.7-2.19-4.89-4.89-4.89h-82.12
						c-2.7,0-4.89,2.19-4.89,4.89v0.04C868.06,704.87,870.25,707.06,872.95,707.06z"/>
					<path class="st9" d="M926.81,677.62h50.56c2.7,0,4.89-2.19,4.89-4.89v-0.04c0-2.7-2.19-4.89-4.89-4.89h-50.56
						c-2.7,0-4.89,2.19-4.89,4.89v0.04C921.92,675.43,924.11,677.62,926.81,677.62z"/>
					<path class="st9" d="M901.2,667.81h-50.56c-2.7,0-4.89,2.19-4.89,4.89v0.04c0,2.7,2.19,4.89,4.89,4.89h50.56
						c2.7,0,4.89-2.19,4.89-4.89v-0.04C906.09,670,903.9,667.81,901.2,667.81z"/>
					<path class="st9" d="M925.96,736.51h44.05c2.7,0,4.89-2.19,4.89-4.89v-0.04c0-2.7-2.19-4.89-4.89-4.89h-44.05
						c-2.7,0-4.89,2.19-4.89,4.89v0.04C921.07,734.32,923.26,736.51,925.96,736.51z"/>
					<path class="st9" d="M902.05,726.69H858c-2.7,0-4.89,2.19-4.89,4.89v0.04c0,2.7,2.19,4.89,4.89,4.89h44.05
						c2.7,0,4.89-2.19,4.89-4.89v-0.04C906.94,728.88,904.75,726.69,902.05,726.69z"/>
					<path class="st9" d="M872.95,765.95h82.12c2.7,0,4.89-2.19,4.89-4.89v-0.04c0-2.7-2.19-4.89-4.89-4.89h-82.12
						c-2.7,0-4.89,2.19-4.89,4.89v0.04C868.06,763.76,870.25,765.95,872.95,765.95z"/>
					<path class="st9" d="M872.95,824.83h82.12c2.7,0,4.89-2.19,4.89-4.89v-0.04c0-2.7-2.19-4.89-4.89-4.89h-82.12
						c-2.7,0-4.89,2.19-4.89,4.89v0.04C868.06,822.64,870.25,824.83,872.95,824.83z"/>
					<path class="st9" d="M925.47,795.39h40.3c2.7,0,4.89-2.19,4.89-4.89v-0.04c0-2.7-2.19-4.89-4.89-4.89h-40.3
						c-2.7,0-4.89,2.19-4.89,4.89v0.04C920.58,793.2,922.77,795.39,925.47,795.39z"/>
					<path class="st9" d="M902.54,785.58h-40.3c-2.7,0-4.89,2.19-4.89,4.89v0.04c0,2.7,2.19,4.89,4.89,4.89h40.3
						c2.7,0,4.89-2.19,4.89-4.89v-0.04C907.43,787.77,905.24,785.58,902.54,785.58z"/>
					<path class="st9" d="M924.23,854.28h30.84c2.7,0,4.89-2.19,4.89-4.89v-0.04c0-2.7-2.19-4.89-4.89-4.89h-30.84
						c-2.7,0-4.89,2.19-4.89,4.89v0.04C919.34,852.09,921.53,854.28,924.23,854.28z"/>
					<path class="st9" d="M903.79,844.46h-30.84c-2.7,0-4.89,2.19-4.89,4.89v0.04c0,2.7,2.19,4.89,4.89,4.89h30.84
						c2.7,0,4.89-2.19,4.89-4.89v-0.04C908.68,846.65,906.49,844.46,903.79,844.46z"/>
					<path class="st9" d="M884.25,883.72h59.51c2.7,0,4.89-2.19,4.89-4.89v-0.04c0-2.7-2.19-4.89-4.89-4.89h-59.51
						c-2.7,0-4.89,2.19-4.89,4.89v0.04C879.36,881.53,881.55,883.72,884.25,883.72z"/>
					<path class="st9" d="M922.91,913.16h20.85c2.7,0,4.89-2.19,4.89-4.89v-0.04c0-2.7-2.19-4.89-4.89-4.89h-20.85
						c-2.7,0-4.89,2.19-4.89,4.89v0.04C918.03,910.97,920.21,913.16,922.91,913.16z"/>
					<path class="st9" d="M884.25,913.16h20.85c2.7,0,4.89-2.19,4.89-4.89v-0.04c0-2.7-2.19-4.89-4.89-4.89h-20.85
						c-2.7,0-4.89,2.19-4.89,4.89v0.04C879.36,910.97,881.55,913.16,884.25,913.16z"/>
				</g>
			</g>
		</g>
		<g>
			<path class="st4" d="M1200.22,139.54L1200.22,139.54c-59.93-10.04-116.66,30.41-126.7,90.34l-156.77,935.75
				c-10.04,59.93,30.41,116.66,90.34,126.7l0,0c59.93,10.04,116.66-30.41,126.7-90.34l156.77-935.75
				C1300.6,206.31,1260.15,149.58,1200.22,139.54z"/>
			<g>
				<g>
					<g>
						<path class="st3" d="M1114.16,274.6l123.4,20.67c8.17,1.37,15.91-4.15,17.27-12.32c1.37-8.17-4.15-15.91-12.32-17.27
							l-123.4-20.67c-8.17-1.37-15.91,4.15-17.27,12.32C1100.47,265.5,1105.99,273.23,1114.16,274.6z"/>
						<path class="st3" d="M1100.45,356.46c-8.17-1.37-15.91,4.15-17.27,12.32l0,0c-1.37,8.17,4.15,15.91,12.32,17.27l123.4,20.67
							c8.17,1.37,15.91-4.15,17.27-12.32l0,0c1.37-8.17-4.15-15.91-12.32-17.27L1100.45,356.46z"/>
						<path class="st3" d="M1081.77,467.91c-8.17-1.37-15.91,4.15-17.27,12.32l0,0c-1.37,8.17,4.15,15.91,12.32,17.27l123.4,20.67
							c8.17,1.37,15.91-4.15,17.27-12.32l0,0c1.37-8.17-4.15-15.91-12.32-17.27L1081.77,467.91z"/>
						<path class="st3" d="M1063.1,579.36c-8.17-1.37-15.91,4.15-17.27,12.32l0,0c-1.37,8.17,4.15,15.91,12.32,17.27l123.4,20.67
							c8.17,1.37,15.91-4.15,17.27-12.32l0,0c1.37-8.17-4.15-15.91-12.32-17.27L1063.1,579.36z"/>
						<path class="st3" d="M1044.43,690.81c-8.17-1.37-15.91,4.15-17.27,12.32l0,0c-1.37,8.17,4.15,15.91,12.32,17.27l123.4,20.67
							c8.17,1.37,15.91-4.15,17.27-12.32l0,0c1.37-8.17-4.15-15.91-12.32-17.27L1044.43,690.81z"/>
						<path class="st3" d="M1025.76,802.26c-8.17-1.37-15.91,4.15-17.27,12.32l0,0c-1.37,8.17,4.15,15.91,12.32,17.27l123.4,20.67
							c8.17,1.37,15.91-4.15,17.27-12.32l0,0c1.37-8.17-4.15-15.91-12.32-17.27L1025.76,802.26z"/>
						<path class="st3" d="M1007.09,913.7c-8.17-1.37-15.91,4.15-17.27,12.32l0,0c-1.37,8.17,4.15,15.91,12.32,17.27l123.4,20.67
							c8.17,1.37,15.91-4.15,17.27-12.32l0,0c1.37-8.17-4.15-15.91-12.32-17.27L1007.09,913.7z"/>
						<path class="st3" d="M988.42,1025.15c-8.17-1.37-15.91,4.15-17.27,12.32l0,0c-1.37,8.17,4.15,15.91,12.32,17.27l123.4,20.67
							c8.17,1.37,15.91-4.15,17.27-12.32l0,0c1.37-8.17-4.15-15.91-12.32-17.27L988.42,1025.15z"/>
						<path class="st3" d="M1093.15,1157.28l-123.4-20.67c-8.17-1.37-15.91,4.15-17.27,12.32l0,0c-1.37,8.17,4.15,15.91,12.32,17.27
							l123.4,20.67c8.17,1.37,15.91-4.15,17.27-12.32l0,0C1106.84,1166.38,1101.32,1158.64,1093.15,1157.28z"/>
					</g>
				</g>
			</g>
		</g>
		<g>
			<path class="st4" d="M254.53,139.54L254.53,139.54c59.93-10.04,116.66,30.41,126.7,90.34L538,1165.64
				c10.04,59.93-30.41,116.66-90.34,126.7l0,0c-59.93,10.04-116.66-30.41-126.7-90.34L164.2,266.24
				C154.15,206.31,194.6,149.58,254.53,139.54z"/>
			<g>
				<g>
					<g>
						<path class="st3" d="M340.59,274.6l-123.4,20.67c-8.17,1.37-15.91-4.15-17.27-12.32c-1.37-8.17,4.15-15.91,12.32-17.27
							l123.4-20.67c8.17-1.37,15.91,4.15,17.27,12.32C354.28,265.5,348.76,273.23,340.59,274.6z"/>
						<path class="st3" d="M354.31,356.46c8.17-1.37,15.91,4.15,17.27,12.32l0,0c1.37,8.17-4.15,15.91-12.32,17.27l-123.4,20.67
							c-8.17,1.37-15.91-4.15-17.27-12.32l0,0c-1.37-8.17,4.15-15.91,12.32-17.27L354.31,356.46z"/>
						<path class="st3" d="M372.98,467.91c8.17-1.37,15.91,4.15,17.27,12.32l0,0c1.37,8.17-4.15,15.91-12.32,17.27l-123.4,20.67
							c-8.17,1.37-15.91-4.15-17.27-12.32l0,0c-1.37-8.17,4.15-15.91,12.32-17.27L372.98,467.91z"/>
						<path class="st3" d="M391.65,579.36c8.17-1.37,15.91,4.15,17.27,12.32l0,0c1.37,8.17-4.15,15.91-12.32,17.27l-123.4,20.67
							c-8.17,1.37-15.91-4.15-17.27-12.32l0,0c-1.37-8.17,4.15-15.91,12.32-17.27L391.65,579.36z"/>
						<path class="st3" d="M410.32,690.81c8.17-1.37,15.91,4.15,17.27,12.32l0,0c1.37,8.17-4.15,15.91-12.32,17.27l-123.4,20.67
							c-8.17,1.37-15.91-4.15-17.27-12.32l0,0c-1.37-8.17,4.15-15.91,12.32-17.27L410.32,690.81z"/>
						<path class="st3" d="M428.99,802.26c8.17-1.37,15.91,4.15,17.27,12.32l0,0c1.37,8.17-4.15,15.91-12.32,17.27l-123.4,20.67
							c-8.17,1.37-15.91-4.15-17.27-12.32l0,0c-1.37-8.17,4.15-15.91,12.32-17.27L428.99,802.26z"/>
						<path class="st3" d="M447.66,913.7c8.17-1.37,15.91,4.15,17.27,12.32l0,0c1.37,8.17-4.15,15.91-12.32,17.27l-123.4,20.67
							c-8.17,1.37-15.91-4.15-17.27-12.32l0,0c-1.37-8.17,4.15-15.91,12.32-17.27L447.66,913.7z"/>
						<path class="st3" d="M466.33,1025.15c8.17-1.37,15.91,4.15,17.27,12.32l0,0c1.37,8.17-4.15,15.91-12.32,17.27l-123.4,20.67
							c-8.17,1.37-15.91-4.15-17.27-12.32l0,0c-1.37-8.17,4.15-15.91,12.32-17.27L466.33,1025.15z"/>
						<path class="st3" d="M361.6,1157.28l123.4-20.67c8.17-1.37,15.91,4.15,17.27,12.32l0,0c1.37,8.17-4.15,15.91-12.32,17.27
							l-123.4,20.67c-8.17,1.37-15.91-4.15-17.27-12.32l0,0C347.92,1166.38,353.43,1158.64,361.6,1157.28z"/>
					</g>
				</g>
			</g>
		</g>
		<g>
			<rect x="339.02" y="344.37" class="st10" width="263.41" height="135.26"/>
			<polygon class="st11" points="648.11,824.06 425.03,824.06 425.03,401.27 602.42,401.27 648.11,479.63 			"/>
			<rect x="293.33" y="479.63" class="st10" width="263.41" height="344.44"/>
			<polygon class="st12" points="602.42,401.27 339.02,401.27 293.33,479.63 556.74,479.63 			"/>
		</g>
		<g>
			<path class="st13" d="M1132.24,427.36c-45.06,0-81.59,36.53-81.59,81.59C1095.71,508.94,1132.24,472.42,1132.24,427.36
				L1132.24,427.36z"/>
			
				<ellipse transform="matrix(0.7071 -0.7071 0.7071 0.7071 -120.2183 920.1823)" class="st14" cx="1050.65" cy="605.21" rx="96.26" ry="96.26"/>
			
				<ellipse transform="matrix(0.7071 -0.7071 0.7071 0.7071 -85.8409 934.8418)" class="st15" cx="1085.53" cy="571.04" rx="31.76" ry="49.13"/>
		</g>
		<g>
			<path class="st13" d="M755.78,427.36c-45.06,0-81.59,36.53-81.59,81.59C719.25,508.94,755.78,472.42,755.78,427.36L755.78,427.36
				z"/>
			
				<ellipse transform="matrix(0.7071 -0.7071 0.7071 0.7071 -230.481 653.9844)" class="st14" cx="674.19" cy="605.21" rx="96.26" ry="96.26"/>
			
				<ellipse transform="matrix(0.7071 -0.7071 0.7071 0.7071 -196.1039 668.6434)" class="st15" cx="709.07" cy="571.04" rx="31.76" ry="49.13"/>
		</g>
	</g>
	<g>
		<polygon class="st17" points="1203.07,562.98 1203.07,1775.76 1334.94,1682.09 1334.94,517.98 		"/>
		<path class="st18" d="M761.03,562.98c0,45.47-46.18,82.33-103.15,82.33c-56.97,0-103.15-36.86-103.15-82.33H112.68v606.39v606.39
			h545.19h545.19v-606.39V562.98H761.03z"/>
	</g>
	<polygon class="st19" points="1203.07,1775.76 1334.94,1547.53 1449.81,1600.49 	"/>
</g>
<g id="Layer_7">
</g>
<g id="Layer_6">
</g>
<g id="Layer_3">
</g>
<g id="Layer_2">
	<g>
		<g>
			<g>
				<g id="pointer_4_">
					<path class="st21" d="M933.92,843.79c-152.44-152.44-399.63-152.47-552.07,0c-152.46,152.45-152.46,399.61,0,552.07
						l249.1,249.1c14.88,14.87,38.99,14.87,53.87,0l249.1-249.1C1086.36,1243.4,1086.36,996.24,933.92,843.79z"/>
					<path class="st22" d="M865.21,1326.04c-114.5,114.52-300.17,114.5-414.68,0c-114.5-114.52-114.5-300.16,0-414.67
						c114.51-114.52,300.18-114.52,414.66,0C979.72,1025.88,979.72,1211.52,865.21,1326.04z"/>
				</g>
			</g>
		</g>
		<path class="st23" d="M652.07,917.52c10.4,0,19.54,2.84,27.42,8.51c7.88,5.68,14.43,13.55,19.62,23.64
			c5.2,10.09,8.67,21.99,10.41,35.7c1.73,13.72,1.66,28.61-0.23,44.68c4.72-10.7,9.61-21.11,14.65-31.2
			c5.04-10.08,10.88-19.07,17.5-26.95c6.61-7.88,14.1-14.19,22.45-18.92c8.35-4.72,18.2-7.08,29.55-7.08
			c9.46,0,17.57,1.81,24.35,5.43c6.77,3.62,12.45,8.35,17.01,14.19c4.57,5.83,7.96,12.29,10.17,19.38c2.19,7.09,3.3,14.11,3.3,21.04
			c0,9.15-1.18,19.23-3.54,30.26c-2.36,11.04-5.28,22.46-8.74,34.27c-3.47,11.82-7.32,23.81-11.58,35.93
			c-4.26,12.15-8.12,23.88-11.58,35.23c-3.47,11.35-6.39,22.15-8.76,32.38c-2.36,10.26-3.54,19.31-3.54,27.19
			c0,11.04,2.12,19.08,6.38,24.11c4.26,5.05,11.11,7.57,20.57,7.57c7.57,0,14.81-2.2,21.74-6.62c3.75-2.38,7.29-4.9,10.66-7.56
			l-4.97-4.39c-5.18-4.57-3.46-13.04,3.08-15.24l30.15-10.13c0.97-0.32,1.94-0.48,2.88-0.48c5.41,0,9.94,5,8.77,10.77l-6.3,31.17
			c-0.91,4.48-4.81,7.21-8.84,7.21c-2.06,0-4.15-0.71-5.9-2.26l-7.41-6.54c-1.12,1.28-2.25,2.55-3.45,3.84
			c-7.72,8.35-16.95,15.84-27.65,22.45c-10.73,6.62-22.23,9.93-34.51,9.93c-9.46,0-17.89-1.89-25.3-5.68
			c-7.41-3.78-13.63-8.81-18.68-15.12c-5.04-6.31-8.91-13.78-11.58-22.46c-2.69-8.66-4.01-18.04-4.01-28.13
			c0-12.92,1.65-27.65,4.96-44.2c3.31-16.54,7.01-32.62,11.11-48.22c4.1-15.61,7.8-29.71,11.11-42.32
			c3.31-12.6,4.97-21.43,4.97-26.47c0-7.24-3.63-10.88-10.88-10.88c-5.99,0-12.53,5.84-19.62,17.5
			c-7.09,11.66-14.19,26.8-21.27,45.39c-7.09,18.59-13.8,39.31-20.09,62.16c-6.31,22.86-11.82,45.47-16.55,67.85
			c-3.15,14.81-8.51,25.69-16.07,32.62c-7.57,6.93-17.03,10.39-28.38,10.39c-11.97,0-20.73-4.41-26.23-13.23
			c-5.53-8.82-8.28-19.23-8.28-31.2c0-11.35,1.26-24.66,3.78-39.96c2.53-15.28,5.28-31.43,8.28-48.46
			c2.99-17.01,5.74-34.04,8.27-51.06c2.51-17.03,3.78-32.93,3.78-47.76c0-11.34-5.05-17.01-15.13-17.01c-4.73,0-9.92,3.23-15.6,9.69
			c-5.68,6.46-11.58,15.13-17.73,26c-6.15,10.88-12.15,23.49-17.97,37.82c-5.84,14.35-11.27,29.47-16.31,45.39
			c-5.04,15.92-9.46,32.23-13.23,48.93c-3.78,16.7-6.47,32.62-8.04,47.74c-0.63,6-2.53,11.75-5.68,17.26
			c-3.15,5.53-7.01,10.49-11.58,14.89c-4.58,4.42-9.62,7.96-15.13,10.65c-5.51,2.66-10.8,4.01-15.84,4.01
			c-16.07,0-27.97-4.42-35.69-13.24c-7.73-8.81-11.58-20.01-11.58-33.57c0-10.39,1.25-24.89,3.78-43.49
			c2.51-18.59,5.19-39.24,8.03-61.93c2.84-22.7,5.36-46.34,7.57-70.92c2.2-24.59,2.99-48.23,2.36-70.92c0-4.73,1.1-9.61,3.31-14.66
			c2.2-5.04,5.43-9.69,9.69-13.95c4.26-4.26,9.3-7.72,15.13-10.4c5.83-2.68,12.37-4.01,19.62-4.01c7.87,0,14.42,1.89,19.61,5.68
			c5.2,3.78,9.23,10.01,12.07,18.68c2.84,8.67,4.33,20.01,4.49,34.04c0.15,14.03-0.7,31.28-2.6,51.77
			c12.29-43.18,27.26-75.09,44.91-95.74C601.17,927.85,624.02,917.52,652.07,917.52 M652.07,892.14c-17.59,0-33.95,3.36-48.63,10
			c-14.79,6.68-27.98,16.73-39.21,29.86c-2.44,2.86-4.83,5.87-7.16,9.04c-4.38-9.23-10.24-16.54-17.49-21.82
			c-9.58-6.98-21.2-10.53-34.54-10.53c-10.9,0-21.07,2.13-30.22,6.33c-8.57,3.95-16.13,9.17-22.48,15.52
			c-6.49,6.49-11.53,13.8-15,21.73c-3.6,8.22-5.43,16.58-5.43,24.82v0.35l0.01,0.35c0.59,21.63-0.17,44.49-2.27,67.96
			c-2.16,24.05-4.67,47.61-7.47,70.04c-2.82,22.55-5.51,43.3-8,61.68c-2.7,19.77-4.01,35.12-4.01,46.89
			c0,19.85,6.02,36.77,17.88,50.3c12.69,14.51,31.13,21.89,54.77,21.89c8.85,0,17.9-2.2,26.88-6.54l0.04-0.02l0.04-0.02
			c7.89-3.85,15.17-8.96,21.63-15.19c6.3-6.08,11.69-13.01,16.01-20.59c4.87-8.51,7.86-17.66,8.86-27.15
			c1.46-14.05,4-29.11,7.55-44.81c3.58-15.86,7.84-31.63,12.67-46.88c4.82-15.21,10.07-29.85,15.62-43.49
			c5.03-12.39,10.24-23.47,15.49-32.99c-0.42,3.6-0.91,7.26-1.45,10.97c-2.49,16.74-5.23,33.7-8.16,50.37
			c-2.94,16.71-5.75,33.11-8.33,48.71c-2.74,16.57-4.12,31.4-4.12,44.1c0,16.76,4.09,31.79,12.15,44.67
			c10.1,16.2,27.06,25.14,47.74,25.14c17.6,0,33.34-5.9,45.52-17.06c11.51-10.56,19.5-26.05,23.75-46.06
			c1.89-8.93,3.91-17.95,6.07-27c0,0.31,0,0.61,0,0.92c0,12.64,1.73,24.63,5.15,35.65c3.59,11.62,8.97,21.99,15.99,30.78
			c7.26,9.09,16.33,16.45,26.96,21.88c10.98,5.61,23.38,8.45,36.84,8.45c17,0,33.1-4.61,47.84-13.71
			c7.55-4.66,14.55-9.76,20.94-15.25c3.26,1.01,6.68,1.54,10.14,1.54c16.3,0,30.48-11.58,33.71-27.54l6.3-31.18
			c2.05-10.13-0.52-20.53-7.06-28.53c-6.57-8.03-16.26-12.64-26.59-12.64c-3.72,0-7.4,0.6-10.94,1.79L849.91,1175
			c-11.61,3.91-20.32,13.79-22.73,25.78c-0.45,2.22-0.67,4.46-0.67,6.69c-0.06,0-0.11,0-0.16-0.01c-0.23-1.37-0.43-3.4-0.43-6.27
			c0-5.93,0.97-13.16,2.89-21.49c2.22-9.62,5.01-19.93,8.29-30.66c3.3-10.82,7.09-22.34,11.26-34.26
			c4.32-12.29,8.35-24.81,11.98-37.17c3.64-12.43,6.74-24.57,9.21-36.11c2.72-12.7,4.1-24.67,4.1-35.57
			c0-9.42-1.49-19.02-4.43-28.53l-0.01-0.04l-0.01-0.04c-3.12-10.01-7.98-19.25-14.43-27.48c-6.72-8.58-15.14-15.62-25.01-20.91
			c-10.48-5.6-22.7-8.43-36.32-8.43c-15.72,0-29.86,3.49-42.04,10.36c-8.91,5.05-17.1,11.47-24.43,19.14
			c-1.57-4.18-3.34-8.18-5.3-11.99c-7-13.6-16.21-24.58-27.35-32.6C682.07,896.61,667.86,892.14,652.07,892.14L652.07,892.14z"/>
		<g>
			<path class="st24" d="M899.79,1199.22l-6.3,31.17c-1.37,6.77-9.56,9.53-14.74,4.95l-7.41-6.54c-1.12,1.28-2.25,2.55-3.45,3.84
				c-7.72,8.35-16.95,15.84-27.65,22.45c-10.73,6.62-22.23,9.93-34.51,9.93c-9.46,0-17.89-1.89-25.3-5.68s-13.63-8.81-18.68-15.12
				c-5.04-6.31-8.91-13.78-11.58-22.46c-2.69-8.66-4.01-18.04-4.01-28.13c0-12.92,1.65-27.65,4.96-44.2
				c3.31-16.54,7.01-32.62,11.11-48.22c4.1-15.61,7.8-29.71,11.11-42.32c3.31-12.6,4.97-21.43,4.97-26.47
				c0-7.24-3.63-10.88-10.88-10.88c-5.99,0-12.53,5.84-19.62,17.5c-7.09,11.66-14.19,26.8-21.27,45.39
				c-7.09,18.59-13.8,39.31-20.09,62.16c-6.31,22.86-11.82,45.47-16.55,67.85c-3.15,14.81-8.51,25.69-16.07,32.62
				c-7.57,6.93-17.03,10.39-28.38,10.39c-11.97,0-20.73-4.41-26.23-13.23c-5.53-8.82-8.28-19.23-8.28-31.2
				c0-11.35,1.26-24.66,3.78-39.96c2.53-15.28,5.28-31.43,8.28-48.46c2.99-17.01,5.74-34.04,8.27-51.06
				c2.51-17.03,3.78-32.93,3.78-47.76c0-11.34-5.05-17.01-15.13-17.01c-4.73,0-9.92,3.23-15.6,9.69c-5.68,6.46-11.58,15.13-17.73,26
				c-6.15,10.88-12.15,23.49-17.97,37.82c-5.84,14.35-11.27,29.47-16.31,45.39c-5.04,15.92-9.46,32.23-13.23,48.93
				c-3.78,16.7-6.47,32.62-8.04,47.74c-0.63,6-2.53,11.75-5.68,17.26c-3.15,5.53-7.01,10.49-11.58,14.89
				c-4.58,4.42-9.62,7.96-15.13,10.65c-5.51,2.66-10.8,4.01-15.84,4.01c-16.07,0-27.97-4.42-35.69-13.24
				c-7.73-8.81-11.58-20.01-11.58-33.57c0-10.39,1.25-24.89,3.78-43.49c2.51-18.59,5.19-39.24,8.03-61.93
				c2.84-22.7,5.36-46.34,7.57-70.92c2.2-24.59,2.99-48.23,2.36-70.92c0-4.73,1.1-9.61,3.31-14.66c2.2-5.04,5.43-9.69,9.69-13.95
				s9.3-7.72,15.13-10.4c5.83-2.68,12.37-4.01,19.62-4.01c7.87,0,14.42,1.89,19.61,5.68c5.2,3.78,9.23,10.01,12.07,18.68
				c2.84,8.67,4.33,20.01,4.49,34.04c0.15,14.03-0.7,31.28-2.6,51.77c12.29-43.18,27.26-75.09,44.91-95.74
				c17.65-20.64,40.5-30.97,68.55-30.97c10.4,0,19.54,2.84,27.42,8.51c7.88,5.68,14.43,13.55,19.62,23.64
				c5.2,10.09,8.67,21.99,10.4,35.7s1.66,28.61-0.23,44.68c4.72-10.7,9.61-21.11,14.65-31.2c5.04-10.08,10.88-19.07,17.5-26.95
				c6.61-7.88,14.1-14.19,22.45-18.92c8.35-4.72,18.2-7.08,29.55-7.08c9.46,0,17.57,1.81,24.35,5.43
				c6.77,3.62,12.45,8.35,17.01,14.19c4.57,5.83,7.96,12.29,10.17,19.38c2.19,7.09,3.3,14.11,3.3,21.04
				c0,9.15-1.18,19.23-3.54,30.26c-2.36,11.04-5.28,22.46-8.74,34.27c-3.47,11.82-7.32,23.81-11.58,35.93
				c-4.26,12.15-8.12,23.88-11.58,35.23c-3.47,11.35-6.39,22.15-8.76,32.38c-2.36,10.25-3.54,19.31-3.54,27.19
				c0,11.04,2.12,19.08,6.38,24.11c4.26,5.05,11.11,7.57,20.57,7.57c7.57,0,14.81-2.2,21.74-6.62c3.75-2.38,7.29-4.9,10.66-7.56
				l-4.97-4.4c-5.18-4.57-3.46-13.03,3.08-15.24l30.15-10.13C894.68,1186.74,901.17,1192.45,899.79,1199.22z"/>
		</g>
	</g>
</g>
<g id="Layer_4">
</g>
</svg>
