<?xml version="1.0" encoding="utf-8"?>
<!-- Generator: Adobe Illustrator 25.2.1, SVG Export Plug-In . SVG Version: 6.00 Build 0)  -->
<svg version="1.1" id="Layer_1" xmlns="http://www.w3.org/2000/svg" xmlns:xlink="http://www.w3.org/1999/xlink" x="0px" y="0px"
	 viewBox="0 0 591.9 702.5" style="enable-background:new 0 0 591.9 702.5;" xml:space="preserve">
<style type="text/css">
	.st0{fill:#ED1C24;}
	.st1{fill:#ECF0F1;}
</style>
<path d="M748.4,337.8H717c-2.1,0-3.8,1.5-3.8,3.4c0,1.9,1.7,3.4,3.8,3.4h31.3c2.1,0,3.8-1.5,3.8-3.4
	C752.2,339.3,750.5,337.8,748.4,337.8z"/>
<path d="M748.4,364.7H717c-2.1,0-3.8,1.5-3.8,3.4c0,1.9,1.7,3.4,3.8,3.4h31.3c2.1,0,3.8-1.5,3.8-3.4
	C752.2,366.2,750.5,364.7,748.4,364.7z"/>
<path d="M748.4,351.2H717c-2.1,0-3.8,1.5-3.8,3.4c0,1.9,1.7,3.4,3.8,3.4h31.3c2.1,0,3.8-1.5,3.8-3.4
	C752.2,352.8,750.5,351.2,748.4,351.2z"/>
<path d="M732.7,309.6c-24.8,0-45,20.2-45,45c0,24.8,20.2,45,45,45c24.8,0,45-20.2,45-45C777.7,329.8,757.5,309.6,732.7,309.6z
	 M732.7,394.3c-21.9,0-39.7-17.8-39.7-39.7s17.8-39.7,39.7-39.7s39.7,17.8,39.7,39.7S754.6,394.3,732.7,394.3z"/>
<text transform="matrix(1 0 0 1 682.7109 421.3393)" style="font-family:'HelveticaNeue-Bold'; font-size:5px;">Created by Mert Güler</text>
<text transform="matrix(1 0 0 1 682.7109 426.3393)" style="font-family:'HelveticaNeue-Bold'; font-size:5px;">from the Noun Project</text>
<path class="st0" d="M505.2,86.7C389.6-28.9,202.2-28.9,86.7,86.7c-115.6,115.6-115.6,302.9,0,418.5L275.5,694
	c11.3,11.3,29.6,11.3,40.8,0l188.8-188.8C620.8,389.6,620.8,202.2,505.2,86.7z"/>
<g>
	<g>
		<g id="pointer_3_">
			<path class="st1" d="M453.1,452.3c-86.8,86.8-227.6,86.8-314.4,0c-86.8-86.8-86.8-227.5,0-314.4c86.8-86.8,227.6-86.8,314.3,0
				C539.9,224.7,539.9,365.4,453.1,452.3z"/>
		</g>
	</g>
</g>
<g>
	<path d="M407.3,175.4H184.6c-15,0-27.3,10.8-27.3,23.9c0,13.2,12.3,23.9,27.3,23.9h222.7c15,0,27.3-10.8,27.3-23.9
		C434.6,186.1,422.3,175.4,407.3,175.4z"/>
	<path d="M407.3,366.9H184.6c-15,0-27.3,10.8-27.3,23.9c0,13.2,12.3,23.9,27.3,23.9h222.7c15,0,27.3-10.8,27.3-23.9
		C434.6,377.7,422.3,366.9,407.3,366.9z"/>
	<path d="M407.3,271.1H184.6c-15,0-27.3,10.8-27.3,23.9c0,13.2,12.3,23.9,27.3,23.9h222.7c15,0,27.3-10.8,27.3-23.9
		C434.6,281.9,422.3,271.1,407.3,271.1z"/>
</g>
</svg>
